<svg fill="#2c70ec" id="Capa_1" enable-background="new 0 0 512 512" height="512" viewBox="0 0 512 512" width="512" xmlns="http://www.w3.org/2000/svg"><g><path d="m312.814 83.438h14.435c4.143 0 7.5-3.357 7.5-7.5s-3.357-7.5-7.5-7.5h-14.435c-4.143 0-7.5 3.357-7.5 7.5s3.357 7.5 7.5 7.5z"/><path d="m420.549 68.438h-64.434c-4.143 0-7.5 3.357-7.5 7.5s3.357 7.5 7.5 7.5h64.434c4.143 0 7.5-3.357 7.5-7.5s-3.357-7.5-7.5-7.5z"/><path d="m312.814 120.835h14.435c4.143 0 7.5-3.357 7.5-7.5s-3.357-7.5-7.5-7.5h-14.435c-4.143 0-7.5 3.357-7.5 7.5s3.357 7.5 7.5 7.5z"/><path d="m420.549 105.835h-64.434c-4.143 0-7.5 3.357-7.5 7.5s3.357 7.5 7.5 7.5h64.434c4.143 0 7.5-3.357 7.5-7.5s-3.357-7.5-7.5-7.5z"/><path d="m312.814 158.231h14.435c4.143 0 7.5-3.357 7.5-7.5s-3.357-7.5-7.5-7.5h-14.435c-4.143 0-7.5 3.357-7.5 7.5s3.357 7.5 7.5 7.5z"/><path d="m420.549 143.231h-64.434c-4.143 0-7.5 3.357-7.5 7.5s3.357 7.5 7.5 7.5h64.434c4.143 0 7.5-3.357 7.5-7.5s-3.357-7.5-7.5-7.5z"/><path d="m312.814 195.628h14.435c4.143 0 7.5-3.357 7.5-7.5s-3.357-7.5-7.5-7.5h-14.435c-4.143 0-7.5 3.357-7.5 7.5s3.357 7.5 7.5 7.5z"/><path d="m428.049 188.128c0-4.143-3.357-7.5-7.5-7.5h-64.434c-4.143 0-7.5 3.357-7.5 7.5s3.357 7.5 7.5 7.5h64.434c4.143 0 7.5-3.358 7.5-7.5z"/><path d="m371.126 307.32c23.128 0 41.943-18.816 41.943-41.944s-18.815-41.944-41.943-41.944-41.944 18.816-41.944 41.944 18.817 41.944 41.944 41.944zm0-68.889c14.856 0 26.943 12.087 26.943 26.944s-12.087 26.944-26.943 26.944c-14.857 0-26.944-12.087-26.944-26.944s12.087-26.944 26.944-26.944z"/><path d="m114.433 273.542c-4.142 0-7.5 3.357-7.5 7.5s3.358 7.5 7.5 7.5h22.002c4.142 0 7.5-3.357 7.5-7.5s-3.358-7.5-7.5-7.5z"/><path d="m177.902 273.542c-4.142 0-7.5 3.357-7.5 7.5s3.358 7.5 7.5 7.5h22.002c4.142 0 7.5-3.357 7.5-7.5s-3.358-7.5-7.5-7.5z"/><path d="m241.371 273.542c-4.142 0-7.5 3.357-7.5 7.5s3.358 7.5 7.5 7.5h22.002c4.143 0 7.5-3.357 7.5-7.5s-3.357-7.5-7.5-7.5z"/><path d="m207.404 376.601c0-9.058-7.369-16.427-16.426-16.427h-139.328c-9.058 0-16.427 7.369-16.427 16.427v25.699c0 9.058 7.369 16.427 16.427 16.427h139.328c9.058 0 16.426-7.369 16.426-16.427zm-15 25.699c0 .787-.64 1.427-1.426 1.427h-139.328c-.787 0-1.427-.64-1.427-1.427v-25.698c0-.787.64-1.427 1.427-1.427h139.328c.787 0 1.426.64 1.426 1.427z"/><path d="m42.724 448.376c-4.142 0-7.5 3.357-7.5 7.5s3.358 7.5 7.5 7.5h19.654c4.142 0 7.5-3.357 7.5-7.5s-3.358-7.5-7.5-7.5z"/><path d="m111.487 448.376c-4.142 0-7.5 3.357-7.5 7.5s3.358 7.5 7.5 7.5h19.654c4.142 0 7.5-3.357 7.5-7.5s-3.358-7.5-7.5-7.5z"/><path d="m180.25 448.376c-4.142 0-7.5 3.357-7.5 7.5s3.358 7.5 7.5 7.5h19.654c4.142 0 7.5-3.357 7.5-7.5s-3.358-7.5-7.5-7.5z"/><path d="m249.014 448.376c-4.142 0-7.5 3.357-7.5 7.5s3.358 7.5 7.5 7.5h19.653c4.143 0 7.5-3.357 7.5-7.5s-3.357-7.5-7.5-7.5z"/><path d="m319.749 435.768c0 20.977 17.065 38.042 38.042 38.042s38.042-17.065 38.042-38.042-17.065-38.042-38.042-38.042-38.042 17.066-38.042 38.042zm61.084 0c0 12.705-10.337 23.042-23.042 23.042s-23.042-10.337-23.042-23.042 10.337-23.042 23.042-23.042 23.042 10.337 23.042 23.042z"/><path d="m424.912 375.175h24.711c4.143 0 7.5-3.357 7.5-7.5s-3.357-7.5-7.5-7.5h-24.711c-4.143 0-7.5 3.357-7.5 7.5s3.357 7.5 7.5 7.5z"/><path d="m449.623 412.726c4.143 0 7.5-3.357 7.5-7.5s-3.357-7.5-7.5-7.5h-24.711c-4.143 0-7.5 3.357-7.5 7.5s3.357 7.5 7.5 7.5z"/><path d="m242.145 144.876h-31.008l-4.571-34.8c-.46-3.507-3.309-6.216-6.834-6.499-3.529-.288-6.771 1.934-7.786 5.321l-13.318 44.421-5.694-24.5c-.71-3.058-3.251-5.35-6.366-5.743-3.116-.383-6.146 1.196-7.594 3.981l-11.323 21.774h-11.99c-4.142 0-7.5 3.357-7.5 7.5s3.358 7.5 7.5 7.5h16.543c2.798 0 5.363-1.558 6.654-4.04l4.06-7.807 7.486 32.21c.77 3.312 3.671 5.691 7.069 5.798.08.003.159.004.238.004 3.302 0 6.229-2.166 7.182-5.346l11.361-37.895.866 6.596c.49 3.732 3.671 6.523 7.436 6.523h37.587c4.142 0 7.5-3.357 7.5-7.5s-3.356-7.498-7.498-7.498z"/><path d="m240.156 199.489h-19.597c-4.142 0-7.5 3.357-7.5 7.5s3.358 7.5 7.5 7.5h19.597c4.142 0 7.5-3.357 7.5-7.5s-3.358-7.5-7.5-7.5z"/><path d="m492.9 328.623h-35.778v-297.955c0-11.303-9.195-20.499-20.498-20.499h-33.298c-4.143 0-7.5 3.357-7.5 7.5s3.357 7.5 7.5 7.5h33.298c3.031 0 5.498 2.467 5.498 5.499v297.955h-372.245v-297.955c0-3.032 2.467-5.499 5.499-5.499h297.963c4.143 0 7.5-3.357 7.5-7.5s-3.357-7.5-7.5-7.5h-297.963c-11.303 0-20.499 9.196-20.499 20.499v297.955h-35.777c-10.532 0-19.1 8.568-19.1 19.1v135.007c0 10.532 8.568 19.101 19.1 19.101h380.926c4.143 0 7.5-3.357 7.5-7.5s-3.357-7.5-7.5-7.5h-380.926c-2.261 0-4.1-1.84-4.1-4.101v-135.008c0-2.261 1.839-4.1 4.1-4.1h473.8c2.261 0 4.1 1.839 4.1 4.1v135.008c0 2.261-1.839 4.101-4.1 4.101h-62.888c-4.143 0-7.5 3.357-7.5 7.5s3.357 7.5 7.5 7.5h62.888c10.531 0 19.1-8.568 19.1-19.101v-135.008c0-10.531-8.569-19.099-19.1-19.099z"/><path d="m286.914 224.272v-154.995c0-11.311-9.202-20.513-20.513-20.513h-154.996c-11.311 0-20.512 9.202-20.512 20.513v78.089c0 4.143 3.358 7.5 7.5 7.5s7.5-3.357 7.5-7.5v-78.089c0-3.04 2.473-5.513 5.512-5.513h154.996c3.04 0 5.513 2.473 5.513 5.513v154.995c0 3.04-2.473 5.513-5.513 5.513h-154.996c-3.04 0-5.512-2.473-5.512-5.513v-46.92c0-4.143-3.358-7.5-7.5-7.5s-7.5 3.357-7.5 7.5v46.92c0 11.311 9.202 20.513 20.512 20.513h154.996c11.31 0 20.513-9.202 20.513-20.513z"/></g></svg>