<svg fill="#2c70ec" id="Capa_1" enable-background="new 0 0 512 512" height="512" viewBox="0 0 512 512" width="512" xmlns="http://www.w3.org/2000/svg"><g><path d="m446.597 358.771h49.843c8.58 0 15.561-6.98 15.561-15.562v-76.382c0-8.581-6.98-15.562-15.561-15.562h-24.506c-4.143 0-7.5 3.357-7.5 7.5s3.357 7.5 7.5 7.5h24.506c.309 0 .561.252.561.562v76.382c0 .31-.252.562-.561.562h-144.809c-.31 0-.562-.252-.562-.562v-76.382c0-.31.252-.562.562-.562h90.316c4.143 0 7.5-3.357 7.5-7.5s-3.357-7.5-7.5-7.5h-60.254v-141.257c0-8.092-6.583-14.675-14.675-14.675h-41.297c-4.143 0-7.5 3.357-7.5 7.5s3.357 7.5 7.5 7.5h40.972v140.933h-15.062c-8.581 0-15.562 6.98-15.562 15.562v76.382c0 8.581 6.98 15.562 15.562 15.562h15.062v42.896h-48.465v-51.189c0-9.739-7.924-17.662-17.663-17.662h-91.928c-9.739 0-17.663 7.923-17.663 17.662v51.189h-48.464v-291.335h153.225c4.143 0 7.5-3.357 7.5-7.5s-3.357-7.5-7.5-7.5h-153.55c-8.092 0-14.675 6.583-14.675 14.675v96.395h-97.952c-9.446 0-17.132 7.686-17.132 17.132v101.787c0 4.143 3.357 7.5 7.5 7.5s7.5-3.357 7.5-7.5v-101.788c0-1.176.956-2.132 2.132-2.132h97.952v180.265h-100.084v-46.358c0-4.143-3.357-7.5-7.5-7.5s-7.5 3.357-7.5 7.5v46.358h-4.926c-4.143 0-7.5 3.357-7.5 7.5s3.357 7.5 7.5 7.5h497c4.143 0 7.5-3.357 7.5-7.5s-3.357-7.5-7.5-7.5h-16.14l4.242-4.548c2.825-3.029 2.66-7.775-.368-10.601-3.031-2.827-7.777-2.66-10.601.368l-7.991 8.567-1.164-2.873c-1.557-3.838-5.928-5.691-9.769-4.134-3.839 1.556-5.689 5.93-4.134 9.769l1.399 3.451h-13.378v-42.895zm-240.622 42.896v-51.189c0-1.468 1.194-2.662 2.663-2.662h91.928c1.469 0 2.663 1.194 2.663 2.662v51.189zm175.718-42.896h19.779v42.896h-19.779zm34.78 42.896v-42.896h15.124v42.896z"/><path d="m424.035 330.43c4.143 0 7.5-3.357 7.5-7.5v-10.411h10.412c4.143 0 7.5-3.357 7.5-7.5s-3.357-7.5-7.5-7.5h-10.412v-10.412c0-4.143-3.357-7.5-7.5-7.5s-7.5 3.357-7.5 7.5v10.412h-10.412c-4.143 0-7.5 3.357-7.5 7.5s3.357 7.5 7.5 7.5h10.412v10.411c0 4.142 3.358 7.5 7.5 7.5z"/><path d="m173.134 136.264c0-4.143-3.357-7.5-7.5-7.5s-7.5 3.357-7.5 7.5v15.314c0 4.143 3.357 7.5 7.5 7.5s7.5-3.357 7.5-7.5z"/><path d="m217.617 136.264c0-4.143-3.357-7.5-7.5-7.5s-7.5 3.357-7.5 7.5v15.314c0 4.143 3.357 7.5 7.5 7.5s7.5-3.357 7.5-7.5z"/><path d="m262.102 136.264c0-4.143-3.357-7.5-7.5-7.5s-7.5 3.357-7.5 7.5v15.314c0 4.143 3.357 7.5 7.5 7.5s7.5-3.357 7.5-7.5z"/><path d="m291.586 136.264v15.314c0 4.143 3.357 7.5 7.5 7.5s7.5-3.357 7.5-7.5v-15.314c0-4.143-3.357-7.5-7.5-7.5s-7.5 3.357-7.5 7.5z"/><path d="m343.569 159.078c4.143 0 7.5-3.357 7.5-7.5v-15.314c0-4.143-3.357-7.5-7.5-7.5s-7.5 3.357-7.5 7.5v15.314c0 4.143 3.358 7.5 7.5 7.5z"/><path d="m173.134 189.922c0-4.143-3.357-7.5-7.5-7.5s-7.5 3.357-7.5 7.5v15.314c0 4.143 3.357 7.5 7.5 7.5s7.5-3.357 7.5-7.5z"/><path d="m217.617 189.922c0-4.143-3.357-7.5-7.5-7.5s-7.5 3.357-7.5 7.5v15.314c0 4.143 3.357 7.5 7.5 7.5s7.5-3.357 7.5-7.5z"/><path d="m262.102 189.922c0-4.143-3.357-7.5-7.5-7.5s-7.5 3.357-7.5 7.5v15.314c0 4.143 3.357 7.5 7.5 7.5s7.5-3.357 7.5-7.5z"/><path d="m306.586 189.922c0-4.143-3.357-7.5-7.5-7.5s-7.5 3.357-7.5 7.5v15.314c0 4.143 3.357 7.5 7.5 7.5s7.5-3.357 7.5-7.5z"/><path d="m336.069 205.236c0 4.143 3.357 7.5 7.5 7.5s7.5-3.357 7.5-7.5v-15.314c0-4.143-3.357-7.5-7.5-7.5s-7.5 3.357-7.5 7.5z"/><path d="m173.134 243.579c0-4.143-3.357-7.5-7.5-7.5s-7.5 3.357-7.5 7.5v15.315c0 4.143 3.357 7.5 7.5 7.5s7.5-3.357 7.5-7.5z"/><path d="m217.617 243.579c0-4.143-3.357-7.5-7.5-7.5s-7.5 3.357-7.5 7.5v15.315c0 4.143 3.357 7.5 7.5 7.5s7.5-3.357 7.5-7.5z"/><path d="m262.102 243.579c0-4.143-3.357-7.5-7.5-7.5s-7.5 3.357-7.5 7.5v15.315c0 4.143 3.357 7.5 7.5 7.5s7.5-3.357 7.5-7.5z"/><path d="m306.586 243.579c0-4.143-3.357-7.5-7.5-7.5s-7.5 3.357-7.5 7.5v15.315c0 4.143 3.357 7.5 7.5 7.5s7.5-3.357 7.5-7.5z"/><path d="m165.634 289.737c-4.143 0-7.5 3.357-7.5 7.5v15.314c0 4.143 3.357 7.5 7.5 7.5s7.5-3.357 7.5-7.5v-15.314c0-4.142-3.358-7.5-7.5-7.5z"/><path d="m210.117 289.737c-4.143 0-7.5 3.357-7.5 7.5v15.314c0 4.143 3.357 7.5 7.5 7.5s7.5-3.357 7.5-7.5v-15.314c0-4.142-3.357-7.5-7.5-7.5z"/><path d="m254.602 289.737c-4.143 0-7.5 3.357-7.5 7.5v15.314c0 4.143 3.357 7.5 7.5 7.5s7.5-3.357 7.5-7.5v-15.314c0-4.142-3.358-7.5-7.5-7.5z"/><path d="m299.086 289.737c-4.143 0-7.5 3.357-7.5 7.5v15.314c0 4.143 3.357 7.5 7.5 7.5s7.5-3.357 7.5-7.5v-15.314c0-4.142-3.357-7.5-7.5-7.5z"/><path d="m55.226 263.818c4.143 0 7.5-3.357 7.5-7.5v-13.785c0-4.143-3.357-7.5-7.5-7.5s-7.5 3.357-7.5 7.5v13.785c0 4.143 3.357 7.5 7.5 7.5z"/><path d="m99.71 263.818c4.143 0 7.5-3.357 7.5-7.5v-13.785c0-4.143-3.357-7.5-7.5-7.5s-7.5 3.357-7.5 7.5v13.785c0 4.143 3.357 7.5 7.5 7.5z"/><path d="m47.726 297.725c0 4.143 3.357 7.5 7.5 7.5s7.5-3.357 7.5-7.5v-13.785c0-4.143-3.357-7.5-7.5-7.5s-7.5 3.357-7.5 7.5z"/><path d="m92.21 297.725c0 4.143 3.357 7.5 7.5 7.5s7.5-3.357 7.5-7.5v-13.785c0-4.143-3.357-7.5-7.5-7.5s-7.5 3.357-7.5 7.5z"/><path d="m47.726 339.13c0 4.143 3.357 7.5 7.5 7.5s7.5-3.357 7.5-7.5v-13.785c0-4.143-3.357-7.5-7.5-7.5s-7.5 3.357-7.5 7.5z"/><path d="m92.21 339.13c0 4.143 3.357 7.5 7.5 7.5s7.5-3.357 7.5-7.5v-13.785c0-4.143-3.357-7.5-7.5-7.5s-7.5 3.357-7.5 7.5z"/><path d="m47.726 380.535c0 4.143 3.357 7.5 7.5 7.5s7.5-3.357 7.5-7.5v-13.785c0-4.143-3.357-7.5-7.5-7.5s-7.5 3.357-7.5 7.5z"/><path d="m92.21 380.535c0 4.143 3.357 7.5 7.5 7.5s7.5-3.357 7.5-7.5v-13.785c0-4.143-3.357-7.5-7.5-7.5s-7.5 3.357-7.5 7.5z"/></g></svg>