<svg fill="#2c70ec"  id="Capa_1" enable-background="new 0 0 512 512" height="512" viewBox="0 0 512 512" width="512" xmlns="http://www.w3.org/2000/svg"><g><path d="m485.564 111.264h-74.737v-85.751c0-14.068-11.445-25.513-25.513-25.513h-51.532c-4.143 0-7.5 3.357-7.5 7.5s3.357 7.5 7.5 7.5h51.532c5.797 0 10.513 4.716 10.513 10.513v218.914h-184.834l-55.83-57.2h25.693c4.142 0 7.5-3.357 7.5-7.5s-3.358-7.5-7.5-7.5h-40.333l-5.405-5.538c-1.411-1.446-3.347-2.262-5.367-2.262h-27.74v-138.914c0-5.797 4.716-10.513 10.513-10.513h191.272c4.143 0 7.5-3.357 7.5-7.5s-3.357-7.5-7.5-7.5h-191.272c-14.068 0-25.513 11.445-25.513 25.513v85.751h-60.575c-14.577 0-26.436 11.859-26.436 26.435v190.794c0 4.143 3.358 7.5 7.5 7.5s7.5-3.357 7.5-7.5v-149.066h111.59l75.875 77.738c1.411 1.446 3.347 2.262 5.367 2.262h289.168v215.417c0 12.217-9.94 22.156-22.156 22.156h-437.688c-12.216 0-22.156-9.939-22.156-22.156v-116.364c0-4.143-3.358-7.5-7.5-7.5s-7.5 3.357-7.5 7.5v116.363c0 20.489 16.669 37.157 37.156 37.157h437.687c20.489 0 37.157-16.668 37.157-37.156v-337.145c0-14.576-11.86-26.435-26.436-26.435zm-470.564 26.435c0-6.306 5.13-11.436 11.436-11.436h60.575v38.163h-72.011zm395.827 106.728v-118.163h74.737c6.306 0 11.436 5.13 11.436 11.436v106.728h-86.173z"/><path d="m319.055 428.149h24.467c6.508 0 11.803-5.295 11.803-11.804v-15.035h15.036c6.508 0 11.803-5.295 11.803-11.804v-24.466c0-6.508-5.295-11.803-11.803-11.803h-15.036v-15.036c0-6.508-5.295-11.803-11.803-11.803h-24.467c-6.509 0-11.804 5.295-11.804 11.803v15.036h-15.035c-6.509 0-11.804 5.295-11.804 11.803v24.467c0 6.509 5.295 11.804 11.804 11.804h15.035v15.035c.001 6.508 5.296 11.803 11.804 11.803zm-23.642-41.838v-18.073h15.036c6.508 0 11.803-5.295 11.803-11.804v-15.035h18.073v15.035c0 6.509 5.295 11.804 11.804 11.804h15.035v18.073h-15.035c-6.509 0-11.804 5.295-11.804 11.803v15.036h-18.073v-15.036c0-6.508-5.295-11.803-11.803-11.803z"/><path d="m385.219 428.139c3.284 2.524 7.993 1.909 10.518-1.373 11.007-14.313 16.824-31.427 16.824-49.492 0-44.813-36.458-81.271-81.271-81.271s-81.271 36.458-81.271 81.271 36.458 81.271 81.271 81.271c13.758 0 27.367-3.515 39.358-10.165 3.622-2.009 4.93-6.573 2.921-10.196-2.009-3.622-6.574-4.935-10.196-2.921-9.771 5.418-20.864 8.282-32.083 8.282-36.542 0-66.271-29.729-66.271-66.271s29.729-66.271 66.271-66.271 66.271 29.729 66.271 66.271c0 14.729-4.742 28.681-13.715 40.348-2.526 3.283-1.911 7.991 1.373 10.517z"/><path d="m106.94 340.322h65.419c4.142 0 7.5-3.357 7.5-7.5s-3.358-7.5-7.5-7.5h-65.419c-4.142 0-7.5 3.357-7.5 7.5s3.358 7.5 7.5 7.5z"/><path d="m106.94 384.773h65.419c4.142 0 7.5-3.357 7.5-7.5s-3.358-7.5-7.5-7.5h-65.419c-4.142 0-7.5 3.357-7.5 7.5s3.358 7.5 7.5 7.5z"/><path d="m106.94 429.226h65.419c4.142 0 7.5-3.357 7.5-7.5s-3.358-7.5-7.5-7.5h-65.419c-4.142 0-7.5 3.357-7.5 7.5s3.358 7.5 7.5 7.5z"/><path d="m180.857 41.942h-45.871c-4.142 0-7.5 3.357-7.5 7.5s3.358 7.5 7.5 7.5h45.871c4.142 0 7.5-3.357 7.5-7.5s-3.358-7.5-7.5-7.5z"/><path d="m362.852 41.942h-155.871c-4.142 0-7.5 3.357-7.5 7.5s3.358 7.5 7.5 7.5h155.871c4.143 0 7.5-3.357 7.5-7.5s-3.357-7.5-7.5-7.5z"/><path d="m180.857 85.37h-45.871c-4.142 0-7.5 3.357-7.5 7.5s3.358 7.5 7.5 7.5h45.871c4.142 0 7.5-3.357 7.5-7.5s-3.358-7.5-7.5-7.5z"/><path d="m362.852 85.37h-155.871c-4.142 0-7.5 3.357-7.5 7.5s3.358 7.5 7.5 7.5h155.871c4.143 0 7.5-3.357 7.5-7.5s-3.357-7.5-7.5-7.5z"/><path d="m180.857 128.799h-45.871c-4.142 0-7.5 3.357-7.5 7.5s3.358 7.5 7.5 7.5h45.871c4.142 0 7.5-3.357 7.5-7.5s-3.358-7.5-7.5-7.5z"/><path d="m362.852 128.799h-155.871c-4.142 0-7.5 3.357-7.5 7.5s3.358 7.5 7.5 7.5h155.871c4.143 0 7.5-3.357 7.5-7.5s-3.357-7.5-7.5-7.5z"/><path d="m362.852 172.227h-155.871c-4.142 0-7.5 3.357-7.5 7.5s3.358 7.5 7.5 7.5h155.871c4.143 0 7.5-3.357 7.5-7.5s-3.357-7.5-7.5-7.5z"/><path d="m362.852 215.654h-155.871c-4.142 0-7.5 3.357-7.5 7.5s3.358 7.5 7.5 7.5h155.871c4.143 0 7.5-3.357 7.5-7.5s-3.357-7.5-7.5-7.5z"/></g></svg>