<svg fill="#2169ec" height="512pt" viewBox="-31 0 512 512" width="512pt" xmlns="http://www.w3.org/2000/svg"><path d="m15 391c-8.285156 0-15 6.714844-15 15v91c0 8.285156 6.714844 15 15 15h180c8.285156 0 15-6.714844 15-15v-91c0-8.285156-6.714844-15-15-15h-75v-30h45c8.285156 0 15-6.714844 15-15v-120c0-8.285156-6.714844-15-15-15h-45v-30h210v30h-45c-8.285156 0-15 6.714844-15 15v120c0 8.285156 6.714844 15 15 15h45v30h-75c-8.285156 0-15 6.714844-15 15v91c0 8.285156 6.714844 15 15 15h180c8.285156 0 15-6.714844 15-15v-91c0-8.285156-6.714844-15-15-15h-75v-30h45c8.285156 0 15-6.714844 15-15v-120c0-8.285156-6.714844-15-15-15h-45v-45c0-8.285156-6.714844-15-15-15h-105v-30h165c8.285156 0 15-6.714844 15-15v-91c0-8.285156-6.714844-15-15-15h-360c-8.285156 0-15 6.714844-15 15v91c0 8.285156 6.714844 15 15 15h165v30h-105c-8.285156 0-15 6.714844-15 15v45h-45c-8.285156 0-15 6.714844-15 15v120c0 8.285156 6.714844 15 15 15h45v30zm405 91h-150v-61h150zm-30-151h-90v-90h90zm-330-301h330v61h-330zm0 211h90v90h-90zm120 241h-150v-61h150zm0 0"/></svg>