<svg fill="#2169ec" height="512pt" viewBox="-46 0 512 512" width="512pt" xmlns="http://www.w3.org/2000/svg"><path d="m150 240c-5.519531 0-10 4.480469-10 10s4.480469 10 10 10 10-4.480469 10-10-4.480469-10-10-10zm0 0"/><path d="m60 336c-5.523438 0-10 4.476562-10 10v46.847656c-28.339844 4.777344-50 29.476563-50 59.152344 0 33.085938 26.914062 60 60 60s60-26.914062 60-60c0-29.675781-21.660156-54.375-50-59.152344v-36.847656h130v36.847656c-28.339844 4.777344-50 29.476563-50 59.152344 0 33.085938 26.914062 60 60 60s60-26.914062 60-60c0-29.675781-21.660156-54.375-50-59.152344v-36.847656h130v36.847656c-28.339844 4.777344-50 29.476563-50 59.152344 0 33.085938 26.914062 60 60 60s60-26.914062 60-60c0-29.675781-21.660156-54.375-50-59.152344v-46.847656c0-5.523438-4.476562-10-10-10h-140v-36h130c16.542969 0 30-13.457031 30-30 0-3.652344 0-197.160156 0-200 0-5.523438-4.476562-10-10-10h-70v-30c0-16.542969-13.457031-30-30-30h-120c-16.542969 0-30 13.457031-30 30v30h-70c-5.523438 0-10 4.476562-10 10v200c0 16.542969 13.457031 30 30 30h130v36zm40 116c0 22.054688-17.945312 40-40 40s-40-17.945312-40-40 17.945312-40 40-40 40 17.945312 40 40zm150 0c0 22.054688-17.945312 40-40 40s-40-17.945312-40-40 17.945312-40 40-40 40 17.945312 40 40zm150 0c0 22.054688-17.945312 40-40 40s-40-17.945312-40-40 17.945312-40 40-40 40 17.945312 40 40zm-260-422c0-5.515625 4.484375-10 10-10h120c5.515625 0 10 4.484375 10 10v30h-140zm-80 50h300v70c0 5.515625-4.484375 10-10 10h-30v-10c0-5.523438-4.476562-10-10-10h-40c-5.523438 0-10 4.476562-10 10v10h-100v-10c0-5.523438-4.476562-10-10-10h-40c-5.523438 0-10 4.476562-10 10v10h-30c-5.515625 0-10-4.484375-10-10 0-18.910156 0-57.542969 0-70zm220 80h20v20h-20zm-160 0h20v20h-20zm-60 110v-91.71875c3.128906 1.109375 6.492188 1.71875 10 1.71875h30v10c0 5.523438 4.476562 10 10 10h40c5.523438 0 10-4.476562 10-10v-10h100v10c0 5.523438 4.476562 10 10 10h40c5.523438 0 10-4.476562 10-10v-10h30c3.507812 0 6.871094-.609375 10-1.71875v91.71875c0 5.515625-4.484375 10-10 10h-280c-5.515625 0-10-4.484375-10-10zm0 0"/><path d="m280 250c0-5.523438-4.476562-10-10-10h-80c-5.523438 0-10 4.476562-10 10s4.476562 10 10 10h80c5.523438 0 10-4.476562 10-10zm0 0"/></svg>