<svg fill="#2169ec" height="512pt" viewBox="0 -1 512 512" width="512pt" xmlns="http://www.w3.org/2000/svg"><path d="m382.414062 93.457031c-18.703124-55.195312-70.769531-93.457031-130.636718-93.457031-56.125 0-104.394532 33.40625-126.085938 81.945312-63.21875-17.828124-125.691406 29.996094-125.691406 95.140626 0 37.769531 21.292969 70.65625 52.515625 87.277343v87.082031c0 26.023438 21.167969 47.191407 47.183594 47.191407h109.097656l-4.179687 33.847656h-31.847657c-17.78125 0-32.253906 14.46875-32.253906 32.25v30.296875c0 8.445312 6.855469 15.296875 15.296875 15.296875h200.375c8.441406 0 15.296875-6.851563 15.296875-15.296875v-30.296875c0-17.78125-14.472656-32.25-32.253906-32.25h-31.847657l-4.179687-33.847656h109.097656c26.015625 0 47.183594-21.167969 47.183594-47.191407v-85.421874c31.101563-15.5 52.515625-47.628907 52.515625-84.6875 0-66.640626-67.59375-112.640626-129.585938-87.878907zm77.070313 136.050781v-21.109374c0-26.023438-21.167969-47.191407-47.183594-47.191407h-312.601562c-26.015625 0-47.183594 21.167969-47.183594 47.191407v18.753906c-13.46875-12.472656-21.925781-30.296875-21.925781-50.066406 0-50.097657 52.398437-83.035157 97.457031-61.683594 8.367187 3.980468 18.398437-.363282 21.167969-9.289063 14-45.175781 55.21875-75.523437 102.5625-75.523437 51.996094 0 96.4375 37.070312 105.652344 88.15625 1.960937 10.902344 14.585937 16.179687 23.730468 9.871094 42.132813-29.039063 100.25 1.15625 100.25 52.71875 0 19.191406-8.496094 36.433593-21.925781 48.171874zm-30.589844 121.9375c0 9.148438-7.445312 16.601563-16.59375 16.601563-15.300781 0-303.714843 0-312.601562 0-9.148438 0-16.59375-7.453125-16.59375-16.601563 0-9.148437 0-136.308593 0-143.046874 0-9.144532 7.445312-16.601563 16.59375-16.601563h312.601562c9.148438 0 16.59375 7.457031 16.59375 16.601563zm-152.335937 81.039063h-41.117188l4.191406-33.847656h32.734376zm62.671875 30.589844c.917969 0 1.660156.746093 1.660156 1.660156v15h-169.78125v-15c0-.914063.742187-1.660156 1.660156-1.660156zm0 0"/><path d="m321.730469 295.167969-5.496094 5.496093c0-4.789062 0-39.792968 0-44.847656 0-20.210937-30.589844-20.15625-30.589844 0v44.398438l-5.488281-5.484375c-14.203125-14.207031-36.054688 7.207031-21.636719 21.625 6.578125 6.582031 23.324219 23.324219 30.164063 30.167969 5.675781 7.585937 16.785156 8.140624 23.289062 1.660156l31.386719-31.386719c14.34375-14.34375-7.378906-35.902344-21.628906-21.628906zm0 0"/><path d="m255.042969 245.324219c-.984375-1.375 1.085937.8125-31.726563-32.003907-5.707031-7.597656-16.820312-8.125-23.289062-1.65625-34.164063 34.164063-32.121094 31.957032-33.265625 33.660157-10.265625 15.183593 10.390625 32.480469 23.515625 19.355469 3.03125-3.03125 2.363281-2.363282 5.488281-5.488282v44.828125c0 20.492188 30.589844 19.957031 30.589844 0 0-15.484375 0-29.316406 0-44.390625 1.386719 1.390625 4.292969 4.292969 5.488281 5.488282 13.285156 13.285156 34.132812-4.773438 23.199219-19.792969zm0 0"/></svg>