<svg fill="#2169ec" id="Capa_1" enable-background="new 0 0 512 512" height="512" viewBox="0 0 512 512" width="512" xmlns="http://www.w3.org/2000/svg"><g><g><path d="m256.18 476.119c-4.183 0-7.995-2.709-9.405-6.635-1.39-3.872-.201-8.322 2.936-10.987 3.269-2.777 8.099-3.123 11.745-.872 3.499 2.16 5.346 6.417 4.534 10.445-.929 4.613-5.095 8.049-9.81 8.049z"/><g><path d="m448.479 415.886h-199.309c-5.522 0-10-4.477-10-10s4.478-10 10-10h199.31c5.523 0 10 4.477 10 10-.001 5.523-4.478 10-10.001 10z"/></g><g><path d="m366.106 377.603h-116.936c-5.522 0-10-4.477-10-10s4.478-10 10-10h116.937c5.522 0 10 4.477 10 10-.001 5.523-4.478 10-10.001 10z"/></g><g><path d="m405.341 339.319h-156.171c-5.522 0-10-4.477-10-10s4.478-10 10-10h156.171c5.523 0 10 4.477 10 10s-4.478 10-10 10z"/></g><path d="m197.085 415.886h-133.701c-5.522 0-10-4.477-10-10v-76.567c0-5.523 4.478-10 10-10h133.701c5.522 0 10 4.477 10 10v76.567c0 5.523-4.478 10-10 10zm-123.701-20h113.701v-56.567h-113.701z"/><path d="m512 108.522c0-20.333-16.5-36.874-36.781-36.874h-226.567l-27.746-32.285c-1.899-2.211-4.669-3.482-7.584-3.482h-176.541c-20.281 0-36.781 16.541-36.781 36.874v145.841.007.013 220.676c0 20.307 16.521 36.828 36.828 36.828h173.966c5.523 0 10-4.477 10-10s-4.477-10-10-10h-173.966c-9.279 0-16.828-7.549-16.828-16.828v-220.677c0-12.332 10.032-22.365 22.364-22.365h427.271c12.332 0 22.364 10.033 22.364 22.365v220.676c0 9.279-7.549 16.828-16.828 16.828h-173.965c-5.522 0-10 4.477-10 10s4.478 10 10 10h173.966c20.307 0 36.828-16.521 36.828-36.828v-220.676c0-.002 0-.004 0-.007 0-.001 0-.002 0-.003zm-448.616 67.729v-37.671h385.096v37.671zm406.252 0h-1.156v-47.671c0-5.523-4.477-10-10-10h-405.096c-5.522 0-10 4.477-10 10v47.671h-1.02c-8.203 0-15.869 2.344-22.364 6.397v-109.893c0-9.304 7.528-16.874 16.781-16.874h171.949l27.746 32.285c1.899 2.211 4.669 3.482 7.584 3.482h231.158c9.253 0 16.781 7.57 16.781 16.874v74.125c-6.494-4.052-14.16-6.396-22.363-6.396z"/></g></g></svg>