<svg fill="#2169ec" id="Capa_1" enable-background="new 0 0 512 512" height="512" viewBox="0 0 512 512" width="512" xmlns="http://www.w3.org/2000/svg"><g><path d="m510.417 490.292-135.563-271.125c-2.541-5.082-7.735-8.292-13.417-8.292s-10.875 3.21-13.417 8.292l-47.297 94.594-89.974-181.77v-41.741h75.375c6.067 0 11.537-3.655 13.858-9.26s1.038-12.057-3.252-16.347l-19.518-19.519 19.518-19.519c4.29-4.29 5.573-10.742 3.252-16.347-2.32-5.603-7.79-9.258-13.857-9.258h-90.375c-8.284 0-15 6.716-15 15v116.959l-179.167 358.333c-2.325 4.649-2.076 10.172.657 14.594s7.561 7.114 12.76 7.114h482c5.199 0 10.027-2.692 12.76-7.114s2.981-9.945.657-14.594zm-148.979-230.876 23.478 46.956-23.508 11.317-23.285-11.643zm-111.292 222.584 74.561-149.121 29.868 14.934c2.111 1.055 4.409 1.583 6.708 1.583 2.225 0 4.45-.495 6.506-1.484l30.545-14.704 74.395 148.792zm-22.959-249.175-31.312 15.074-31.643-15.822 31.451-62.901zm18.207-177.094 4.518 4.519h-39.162v-30.25h39.162l-4.518 4.519c-5.858 5.857-5.858 15.355 0 21.212zm-94.579 203.179 38.227 19.113c2.11 1.055 4.409 1.583 6.708 1.583 2.224 0 4.45-.495 6.506-1.484l38.24-18.409 42.903 86.675-66.853 135.612h-177.275z"/></g></svg>