<svg fill="#2169ec" id="Layer_1" enable-background="new 0 0 512 512" height="512" viewBox="0 0 512 512" width="512" xmlns="http://www.w3.org/2000/svg"><g><path d="m284.129 267.503c-.003.004-.006.007-.01.01-24.259 24.295-24.259 63.824.005 88.124 12.148 12.147 28.103 18.222 44.061 18.222s31.919-6.076 44.07-18.227c24.26-24.295 24.26-63.824-.01-88.129-24.293-24.26-63.822-24.26-88.116 0zm73.979 73.992c-16.498 16.499-43.343 16.499-59.836.005-16.476-16.499-16.477-43.347-.005-59.849 16.502-16.474 43.348-16.471 59.836-.005 16.479 16.502 16.479 43.352.005 59.849z"/><g><path d="m230.62 82.238h-.028c-5.523 0-10-4.478-10-10s4.477-10 10-10 10.014 4.478 10.014 10-4.463 10-9.986 10z"/></g><g><path d="m501.565 434.444-55.638-55.621c-.06-.063-22.599-22.592-22.599-22.592 10.01-21.328 12.287-45.041 7.387-67.286h1.276c16.08 0 29.162-13.082 29.162-29.162v-214.021c0-16.081-13.082-29.163-29.162-29.163h-311.525c-16.08 0-29.162 13.082-29.162 29.163v16.476h-16.504c-16.08 0-29.162 13.082-29.162 29.163v16.505h-16.476c-16.08 0-29.162 13.082-29.162 29.162v214.021c0 16.08 13.082 29.163 29.162 29.163h24.583v44.852c0 3.53 1.861 6.799 4.897 8.601 1.571.932 3.336 1.399 5.103 1.399 1.647 0 3.297-.407 4.792-1.223l98.219-53.629h81.882c1.671 1.93 3.417 3.809 5.24 5.632 31.365 31.366 79.281 39.458 118.938 20.858l78.239 78.215c6.963 6.963 16.109 10.444 25.255 10.444 9.146-.001 18.292-3.482 25.255-10.444 6.728-6.729 10.434-15.698 10.434-25.256.001-9.559-3.705-18.528-10.434-25.257zm-435.927-343.043c0-4.967 4.196-9.163 9.162-9.163h110.721c5.523 0 10-4.478 10-10s-4.477-10-10-10h-74.217v-16.476c0-5.053 4.11-9.163 9.162-9.163h311.526c4.966 0 9.162 4.196 9.162 9.163v214.021c0 4.967-4.196 9.162-9.162 9.162h-7.831c-2.414-5.46-5.287-10.746-8.644-15.777v-161.767c0-16.081-13.082-29.163-29.162-29.163h-110.637c-5.523 0-10 4.478-10 10s4.477 10 10 10h110.636c4.966 0 9.162 4.196 9.162 9.163v139.517c-7.827-6.552-16.459-11.873-25.666-15.849v-78c0-16.08-13.082-29.162-29.162-29.162h-275.05zm98.566 268.85c-1.675 0-3.322.421-4.792 1.223l-85.667 46.776v-37.998c0-5.522-4.477-10-10-10h-34.583c-5.052 0-9.162-4.11-9.162-9.163v-214.021c0-5.052 4.11-9.162 9.162-9.162h311.526c4.966 0 9.162 4.195 9.162 9.162v71.672c-7.047-1.469-14.296-2.229-21.663-2.229-28.07 0-54.46 10.932-74.306 30.778-19.85 19.835-30.782 46.218-30.782 74.288 0 17.234 4.128 33.832 11.903 48.675h-70.798zm217.598 27.193c-1.925-1.924-4.484-2.928-7.073-2.928-1.675 0-3.362.42-4.898 1.283-33.073 18.597-74.938 12.813-101.809-14.059-16.071-16.071-24.922-37.438-24.922-60.164s8.85-44.084 24.922-60.144c16.07-16.071 37.438-24.923 60.166-24.923s44.095 8.852 60.166 24.923c26.869 26.869 32.639 68.735 14.032 101.811-2.199 3.909-1.527 8.805 1.646 11.976l20.498 20.492-22.227 22.227zm105.622 83.37c-6.126 6.13-16.098 6.129-22.227-.001l-48.75-48.735 22.227-22.227 48.751 48.736c2.951 2.95 4.576 6.897 4.576 11.113s-1.626 8.164-4.577 11.114z"/><path d="m251.369 178.363h51.59c5.523 0 10-4.478 10-10s-4.477-10-10-10h-51.59c-5.523 0-10 4.478-10 10s4.477 10 10 10z"/><path d="m66.891 178.363h134.73c5.523 0 10-4.478 10-10s-4.477-10-10-10h-134.73c-5.523 0-10 4.478-10 10s4.477 10 10 10z"/><path d="m66.891 228.849h25.937c5.523 0 10-4.478 10-10s-4.477-10-10-10h-25.937c-5.523 0-10 4.478-10 10s4.477 10 10 10z"/><path d="m228.657 218.849c0-5.522-4.477-10-10-10h-78.718c-5.523 0-10 4.478-10 10s4.477 10 10 10h78.718c5.523 0 10-4.477 10-10z"/><path d="m194.364 259.307h-127.473c-5.523 0-10 4.478-10 10s4.477 10 10 10h127.473c5.523 0 10-4.478 10-10s-4.477-10-10-10z"/><path d="m182.374 309.793h-46.205c-5.523 0-10 4.478-10 10s4.477 10 10 10h46.205c5.523 0 10-4.478 10-10s-4.477-10-10-10z"/><path d="m89.058 309.793h-22.167c-5.523 0-10 4.478-10 10s4.477 10 10 10h22.167c5.523 0 10-4.478 10-10s-4.477-10-10-10z"/><path d="m230.62 62.238c-5.523 0-10 4.478-10 10s4.477 10 10 10h.057c5.523 0 9.972-4.478 9.972-10s-4.506-10-10.029-10z"/></g></g></svg>