<svg fill="#2169ec" id="Capa_1" enable-background="new 0 0 512 512" height="512" viewBox="0 0 512 512" width="512" xmlns="http://www.w3.org/2000/svg"><g><path d="m64.16 447.68h142.68c12.55 0 24.26-3.637 34.16-9.891v10.051c0 35.378 28.782 64.16 64.16 64.16h142.68c35.378 0 64.16-28.782 64.16-64.16v-331.936c0-28.909-23.509-51.581-51.581-51.581-179.704 0-168.505-.031-170.425.063-6.66.326-13.08 1.921-18.994 4.648v-17.453c0-28.519-23.079-51.581-51.581-51.581h-167.838c-28.472 0-51.581 23.091-51.581 51.581v331.929c0 35.383 28.782 64.17 64.16 64.17zm142.68-30h-142.68c-18.836 0-34.16-15.329-34.16-34.17v-329.811l8.584 9.865c14.728 16.925 36.043 26.633 58.479 26.633h76.872c22.437 0 43.751-9.708 58.479-26.633l8.586-9.866v221.843h-47.5c-8.284 0-15 6.716-15 15v60c0 8.284 6.716 15 15 15h47.5v17.969c0 18.841-15.324 34.17-34.16 34.17zm106.911-82.139c-10.824 0-93.849 0-105.251 0v-30h105.251c8.284 0 15-6.716 15-15v-15.662l56.935 45.662-56.935 45.662v-15.662c0-8.284-6.716-15-15-15zm168.249 112.299c0 18.836-15.324 34.16-34.16 34.16h-142.68c-18.836 0-34.16-15.324-34.16-34.16v-64.33-17.969h27.751v31.92c0 12.556 14.579 19.567 24.385 11.702l95.909-76.92c7.478-5.998 7.486-17.399 0-23.403l-95.909-76.921c-9.794-7.856-24.385-.869-24.385 11.702v31.921h-27.751v-157.519l8.584 9.865c14.728 16.925 36.043 26.633 58.479 26.633h76.872c22.437 0 43.751-9.708 58.479-26.633l8.585-9.866v329.818zm-19.259-353.386-11.957 13.74c-9.028 10.375-22.095 16.326-35.849 16.326h-76.872c-13.754 0-26.82-5.951-35.849-16.326l-11.956-13.74c1.803-.193 170.353-.227 172.483 0zm-241-64.324-11.957 13.74c-9.028 10.375-22.095 16.326-35.849 16.326h-76.872c-13.754 0-26.82-5.951-35.849-16.326l-11.955-13.74c2.042-.219 170.63-.197 172.482 0z"/><path d="m122.645 120.197h-35.29c-15.084 0-27.355 12.271-27.355 27.355v35.289c0 15.084 12.271 27.355 27.355 27.355h35.289c15.084 0 27.355-12.271 27.355-27.355v-35.289c.001-15.084-12.27-27.355-27.354-27.355zm-2.645 60h-30v-30h30z"/><path d="m122.645 240.197h-35.29c-15.084 0-27.355 12.271-27.355 27.355v35.289c0 15.084 12.271 27.355 27.355 27.355h35.289c15.084 0 27.355-12.271 27.355-27.355v-35.289c.001-15.084-12.27-27.355-27.354-27.355zm-2.645 60h-30v-30h30z"/></g></svg>