<svg fill="#2169ec" height="511pt" viewBox="-37 1 511 511.99871" width="511pt" xmlns="http://www.w3.org/2000/svg"><path d="m415.195312 57.667969c-105.761718-2.375-161.832031-37.386719-181.035156-52.328125-9.144531-7.117188-21.917968-7.121094-31.066406 0-19.199219 14.941406-75.273438 49.953125-181.035156 52.328125-11.886719.269531-21.558594 10.175781-21.558594 22.089843v103.800782c0 66.628906 18.335938 131.875 53.027344 188.6875 34.738281 56.894531 84.433594 102.945312 143.710937 133.175781 1.90625.972656 3.828125 1.941406 5.773438 2.914063 4.890625 2.441406 10.253906 3.664062 15.617187 3.664062 5.363282 0 10.726563-1.222656 15.617188-3.664062 1.941406-.972657 3.867187-1.941407 5.773437-2.917969 40.550781-20.679688 76.367188-48.476563 106.453125-82.625 3.683594-4.179688 3.28125-10.554688-.898437-14.234375-4.179688-3.683594-10.554688-3.28125-14.234375.898437-28.398438 32.230469-62.207032 58.472657-100.484375 77.992188-1.855469.945312-3.730469 1.894531-5.621094 2.839843-4.136719 2.066407-9.074219 2.066407-13.210937 0-1.890626-.945312-3.765626-1.894531-5.621094-2.839843-114.5625-58.425781-185.730469-174.871094-185.730469-303.890625v-103.800782c0-1.035156.824219-1.898437 1.84375-1.921874 111.78125-2.511719 172.1875-40.40625 192.96875-56.578126 1.851563-1.441406 4.441406-1.441406 6.289063 0 20.785156 16.171876 81.1875 54.066407 192.972656 56.578126 1.015625.023437 1.84375.886718 1.84375 1.921874v103.800782c0 57.875-14.816406 115.195312-42.847656 165.765625-2.703126 4.871093-.941407 11.007812 3.929687 13.710937 4.875 2.699219 11.011719.9375 13.710937-3.933594 29.6875-53.550781 45.375-114.253906 45.375-175.542968v-103.800782c0-11.914062-9.671874-21.820312-21.5625-22.089843zm0 0"/><path d="m219.773438 431.085938c5.570312 0 10.085937-4.515626 10.085937-10.085938v-20.4375c.449219-.191406.898437-.394531 1.339844-.617188 1.089843-.542968 2.167969-1.089843 3.234375-1.632812 33.605468-17.140625 61.785156-43.25 81.480468-75.507812 11.570313-18.945313 19.925782-39.554688 24.851563-61h47.972656c5.570313 0 10.085938-4.515626 10.085938-10.085938s-4.515625-10.085938-10.085938-10.085938h-44.394531c1.078125-8.523437 1.632812-17.140624 1.632812-25.796874v-57.558594c0-9.027344-7.335937-16.535156-16.347656-16.738282-57.304687-1.289062-87.433594-20.0625-97.726562-28.074218-.65625-.507813-1.34375-.953125-2.042969-1.363282v-26.675781c0-5.574219-4.515625-10.085937-10.085937-10.085937-5.570313 0-10.085938 4.511718-10.085938 10.085937v27.664063c-.175781.125-.359375.242187-.53125.375-10.292969 8.011718-40.421875 26.785156-97.722656 28.074218-9.015625.199219-16.351563 7.710938-16.351563 16.738282v57.558594c0 8.65625.554688 17.273437 1.632813 25.796874h-50.730469c-5.570313 0-10.085937 4.515626-10.085937 10.085938s4.515624 10.085938 10.085937 10.085938h54.308594c4.925781 21.445312 13.28125 42.050781 24.851562 61 19.699219 32.257812 47.875 58.367187 81.484375 75.507812 1.007813.515625 2.03125 1.03125 3.058594 1.546875v21.140625c0 5.570312 4.515625 10.085938 10.085938 10.085938zm-98.785157-169.28125h58.710938c5.570312 0 10.085937-4.515626 10.085937-10.085938s-4.515625-10.085938-10.085937-10.085938h-62.671875c-1.171875-8.460937-1.773438-17.074218-1.773438-25.796874v-54.226563c46.859375-1.609375 77.4375-14.328125 94.429688-24.277344v72.6875c0 5.570313 4.515625 10.085938 10.085937 10.085938 5.570313 0 10.085938-4.515625 10.085938-10.085938v-73.582031c16.664062 10.0625 47.667969 23.515625 95.949219 25.171875v54.226563c0 8.722656-.601563 17.335937-1.773438 25.796874h-64.300781c-5.570313 0-10.085938 4.515626-10.085938 10.085938s4.515625 10.085938 10.085938 10.085938h60.339843c-12.460937 49.09375-44.632812 91.234374-90.214843 116.097656v-87.738282c0-5.570312-4.515625-10.085937-10.085938-10.085937-5.570312 0-10.085937 4.515625-10.085937 10.085937v86.914063c-44.78125-24.960937-76.375-66.722656-88.695313-115.273437zm0 0"/><path d="m210.097656 253.90625c1.589844 3.921875 5.363282 6.300781 9.351563 6.300781 1.261719 0 2.542969-.238281 3.78125-.738281 5.164062-2.089844 7.652343-7.972656 5.5625-13.132812l-.117188-.300782c-2.09375-5.160156-7.972656-7.652344-13.136719-5.5625-5.160156 2.09375-7.652343 7.972656-5.5625 13.132813zm0 0"/><path d="m371.777344 382.527344c-2.085938-5.164063-7.964844-7.660156-13.128906-5.574219-5.164063 2.085937-7.660157 7.964844-5.574219 13.128906l.121093.296875c1.585938 3.929688 5.363282 6.3125 9.351563 6.3125 1.257813 0 2.539063-.238281 3.777344-.738281 5.164062-2.085937 7.660156-7.964844 5.570312-13.128906zm0 0"/></svg>