<svg fill="#2169ec" id="Layer_1" enable-background="new 0 0 512.755 512.755" height="512" viewBox="0 0 512.755 512.755" width="512" xmlns="http://www.w3.org/2000/svg"><g><path d="m308.71 484.87h-.01c-3.99 1.09-6.341 5.22-5.25 9.22 1.019 3.688 5.552 6.251 9.22 5.25 9.481-2.954 5.698-16.776-3.96-14.47z"/><path d="m270.68 491.89c-4.12.41-7.14 4.08-6.729 8.2.388 4.133 4.145 7.163 8.199 6.73 4.12-.41 7.131-4.08 6.73-8.2-.41-4.12-4.08-7.13-8.2-6.73z"/><path d="m193.76 486.54c-4.03-.98-8.09 1.49-9.06 5.52-.98 4.02 1.489 8.08 5.52 9.06 3.688.873 8.148-1.795 9.05-5.52.98-4.03-1.49-8.08-5.51-9.06z"/><path d="m231.99 492.45c-4.141-.29-7.721 2.83-8 6.97-.29 4.13 2.829 7.71 6.96 7.99 4.075.308 7.731-2.826 8-6.96.29-4.14-2.83-7.72-6.96-8z"/><path d="m344.99 471.51c-3.75 1.76-5.37 6.22-3.61 9.97 2.825 4.047 6.148 5.251 9.97 3.61 8.849-4.513 2.764-17.485-6.36-13.58z"/><path d="m378.5 452.21c-3.41 2.36-4.25 7.03-1.88 10.43 3.22 3.546 6.7 4.173 10.439 1.88 3.4-2.36 4.24-7.03 1.88-10.43-2.37-3.41-7.04-4.25-10.439-1.88z"/><path d="m463.569 361.69c-3.71-1.83-8.21-.3-10.039 3.42-1.83 3.71-.311 8.21 3.409 10.04 3.817 1.725 7.163.588 10.04-3.41 1.831-3.72.311-8.21-3.41-10.05z"/><path d="m483.729 284.65c-4.109-.49-7.84 2.45-8.33 6.56-.479 4.035 3.393 8.39 7.46 8.39 3.75 0 6.98-2.81 7.44-6.62 0-.01 0-.01 0-.01.481-4.11-2.459-7.84-6.57-8.32z"/><path d="m476.939 324.02c-3.97-1.17-8.149 1.1-9.319 5.07-1.181 3.97 1.09 8.14 5.06 9.32 3.657 1.084 8.236-1.375 9.32-5.07 1.18-3.97-1.09-8.14-5.061-9.32z"/><path d="m408.3 427.54c-2.96 2.9-3.01 7.65-.11 10.61 3.524 2.966 7.061 3 10.61.1 2.96-2.9 3-7.65.1-10.6-2.9-2.96-7.64-3.01-10.6-.11z"/><path d="m444.03 396.56c-3.36-2.43-8.051-1.68-10.48 1.67-2.43 3.36-1.68 8.05 1.68 10.48 3.721 2.345 7.212 1.785 10.471-1.68 2.429-3.35 1.679-8.04-1.671-10.47z"/><path d="m119.479 72.94c1.4 0 2.82-.39 4.08-1.21 3.471-2.26 4.46-6.9 2.21-10.38-2.25-3.47-6.899-4.46-10.37-2.21-3.479 2.26-4.47 6.9-2.21 10.38 1.431 2.21 3.841 3.42 6.29 3.42z"/><path d="m154.7 54.12c4.88 0 8.871-5.838 6.89-10.47-1.64-3.8-6.05-5.56-9.85-3.92-.011 0-.011 0-.011 0-3.8 1.63-5.56 6.04-3.92 9.85 1.221 2.84 3.981 4.54 6.891 4.54z"/><path d="m232.08 35.53c.17 0 .34-.01.5-.02 4.14-.27 7.27-3.85 6.989-7.98-.27-4.13-3.85-7.26-7.979-6.99-4.14.28-7.26 3.85-6.99 7.98.27 3.97 3.57 7.01 7.48 7.01z"/><path d="m192.6 41.53c4.371 0 8.331-4.935 7.29-9.26-.96-4.02-5.01-6.51-9.04-5.54s-6.51 5.02-5.54 9.04c.82 3.44 3.9 5.76 7.29 5.76z"/><path d="m87.92 97.41c1.81 0 3.63-.65 5.07-1.98 3.05-2.8 3.25-7.55.439-10.6-2.8-3.04-7.54-3.24-10.59-.44-3.05 2.81-3.25 7.55-.44 10.6 1.481 1.61 3.491 2.42 5.521 2.42z"/><path d="m14.2 300.67c-4.07.76-6.74 4.69-5.98 8.75.698 3.708 5.047 6.704 8.76 5.99 4.07-.77 6.75-4.69 5.98-8.76-.771-4.07-4.691-6.75-8.76-5.98z"/><path d="m13.04 235.85c3.724.584 7.972-2.597 8.529-6.3.62-4.09-2.199-7.91-6.3-8.53-4.09-.62-7.91 2.2-8.529 6.3-.62 4.09 2.199 7.92 6.3 8.53z"/><path d="m11.53 275.79h.14c4.14-.07 7.439-3.49 7.37-7.63h-.01c-.07-4.14-3.48-7.44-7.631-7.37-4.14.08-7.43 3.49-7.359 7.63.069 4.1 3.41 7.37 7.49 7.37z"/><path d="m21.08 196.71c3.634 1.195 8.265-1.082 9.479-4.76 1.3-3.93-.83-8.18-4.76-9.48s-8.18.83-9.48 4.76c-1.3 3.94.83 8.18 4.761 9.48z"/><path d="m35.649 159.49c3.81 1.833 7.194.803 10.15-3.09 1.95-3.66.57-8.2-3.09-10.15-3.65-1.95-8.2-.57-10.15 3.09-1.939 3.65-.559 8.2 3.09 10.15z"/><path d="m56.3 125.26c3.692 2.472 7.198 2.025 10.52-1.34 2.54-3.27 1.94-7.98-1.34-10.52-3.27-2.53-7.979-1.93-10.52 1.34-2.53 3.28-1.941 7.99 1.34 10.52z"/><path d="m508.216 125.124-27.851-11.965c-1.999-6.473-4.512-12.792-7.501-18.863l11.158-27.96c1.108-2.777.461-5.948-1.647-8.068l-27.544-27.699c-2.126-2.138-5.326-2.794-8.125-1.667l-26.039 10.508c-6.854-3.775-14.049-6.883-21.465-9.271l-10.865-25.572c-1.176-2.769-3.894-4.567-6.902-4.567h-38.953c-3.009 0-5.727 1.798-6.903 4.567l-10.865 25.573c-7.416 2.388-14.61 5.495-21.465 9.271l-26.039-10.509c-2.799-1.129-5.999-.472-8.125 1.667l-27.544 27.699c-2.108 2.121-2.756 5.291-1.647 8.068l11.158 27.96c-2.426 4.928-4.544 10.032-6.32 15.229-32.823.054-64.293 10.049-91.025 28.912-7.923 5.592.726 17.848 8.648 12.256 93.254-67.056 227.133 2.356 226.147 117.309.001 40.003-16.902 78.495-46.374 105.606-1.544 1.42-2.423 3.422-2.423 5.52v28.497l-25.587-10.81c-1.996-.844-4.261-.782-6.211.17-36.12 17.914-80.403 19.263-117.531 3.741l7.57-7.778c2.085-2.143 2.698-5.32 1.561-8.085l-9.854-23.946c-1.145-2.782-3.842-4.611-6.851-4.645l-17.373-.197c-2.897-3.523-6.074-6.8-9.491-9.794l-.184-17.264c-.032-2.998-1.847-5.689-4.614-6.843l-23.809-9.923c-2.786-1.162-5.993-.54-8.144 1.574l-7.509 7.381c-19.917-48.629-9.982-107.692 24.85-147.144 6.353-7.326-4.981-17.156-11.332-9.827-38.226 43.307-49.336 107.997-27.848 161.525-1.326.062-2.652.155-3.975.28l-12.422-12.225c-2.149-2.115-5.357-2.737-8.143-1.579l-23.814 9.913c-2.768 1.152-4.584 3.841-4.618 6.839l-.213 18.809c-2.841 2.562-5.516 5.315-7.997 8.23l-18.858.205c-3.009.033-5.706 1.859-6.853 4.641l-9.871 23.942c-1.14 2.765-.528 5.942 1.556 8.087l13.208 13.586c-.3 3.838-.348 7.699-.143 11.542l-13.079 13.439c-2.086 2.143-2.699 5.32-1.562 8.085l9.854 23.946c1.145 2.783 3.842 4.611 6.851 4.646l17.373.197c2.897 3.522 6.073 6.8 9.491 9.794l.184 17.264c.032 2.998 1.847 5.689 4.614 6.843l23.809 9.923c2.784 1.161 5.992.54 8.144-1.574l12.253-12.045c4.508.312 9.047.255 13.562-.171l12.421 12.223c2.556 2.179 5.27 2.705 8.143 1.579l23.814-9.912c2.768-1.152 4.584-3.841 4.617-6.839l.214-18.809c2.84-2.562 5.515-5.314 7.996-8.23l18.86-.206c3.008-.033 5.705-1.859 6.852-4.641l9.872-23.942c1.14-2.765.528-5.942-1.556-8.087l-13.209-13.586c.084-1.075.148-2.151.192-3.228 39.869 16.592 87.316 15.603 126.464-2.758l32.906 13.902c5.945 1.425 9.418-.878 10.419-6.909v-36.563c30.186-28.968 47.796-68.984 48.756-110.768 5.908-2.148 11.675-4.766 17.206-7.812l26.039 10.508c2.876 1.095 5.584.54 8.125-1.667l27.544-27.699c2.108-2.121 2.756-5.291 1.647-8.068l-11.158-27.96c2.989-6.071 5.502-12.392 7.501-18.863l27.851-11.965c2.754-1.184 4.539-3.894 4.539-6.891v-39.172c.001-2.996-1.784-5.706-4.538-6.89zm-330.576 328.114-17.408.19c-2.28.025-4.426 1.086-5.829 2.884-3.174 4.064-6.79 7.792-10.747 11.079-1.692 1.406-2.683 3.484-2.708 5.685l-.195 17.242-14.658 6.101-11.435-11.254c-1.66-1.64-4.015-2.407-6.304-2.082-5.697.8-11.467.877-17.149.229-2.254-.254-4.494.517-6.107 2.103l-11.182 10.992-14.652-6.107-.168-15.771c-.024-2.248-1.055-4.366-2.809-5.771-4.477-3.589-8.504-7.751-11.97-12.373-1.398-1.865-3.584-2.973-5.915-3l-16.002-.182-6.091-14.802 11.995-12.325c1.534-1.576 2.299-3.745 2.093-5.934-.483-5.143-.416-10.354.202-15.487.271-2.249-.489-4.5-2.068-6.125l-12.203-12.552 6.103-14.801 17.407-.189c2.281-.025 4.428-1.086 5.831-2.884 3.171-4.062 6.787-7.791 10.746-11.08 1.692-1.406 2.683-3.484 2.707-5.684l.196-17.242 14.658-6.101 11.436 11.254c1.663 1.636 3.982 2.406 6.304 2.082 4.814-.676 9.68-.836 14.504-.478 2.907 1.219 6.525.335 8.752-1.854l11.181-10.991 14.653 6.107.168 15.771c.024 2.248 1.055 4.366 2.809 5.771 4.475 3.587 8.502 7.75 11.97 12.374 1.398 1.864 3.585 2.973 5.915 2.999l16.002.182 6.091 14.801-10.462 10.75c-2.324 1.518-3.885 4.744-3.625 7.509.483 5.139.415 10.351-.202 15.489-.271 2.249.49 4.499 2.068 6.123l12.203 12.552zm135.446-328.335c9.671-17.909 28.389-29.251 48.872-29.251 57.696.708 76.523 76.99 26.559 105.108-15.603-33.159-42.372-60.07-75.431-75.857zm184.669 41.343-26.553 11.408c-2.088.897-3.656 2.693-4.265 4.882-2.165 7.788-5.171 15.357-8.934 22.498-1.024 1.943-1.145 4.237-.331 6.276l10.592 26.541-20.561 20.676-24.792-10.005c-2.164-.874-4.614-.689-6.624.499-4.263 2.521-8.703 4.747-13.26 6.652-1.103-14.263-4.102-28.003-8.746-40.968 23.473-12.075 38.272-36.11 38.272-63.104-.837-74.198-98.849-98.01-133.349-32.531-12.295-4.487-25.296-7.493-38.787-8.802 1.595-4.139 3.434-8.19 5.494-12.1 1.024-1.943 1.146-4.237.331-6.277l-10.592-26.541 20.561-20.677 24.792 10.005c2.164.874 4.614.69 6.624-.5 7.774-4.597 16.087-8.193 24.706-10.686 2.167-.627 3.937-2.196 4.819-4.272l10.291-24.22h29.029l10.291 24.222c.882 2.076 2.651 3.645 4.818 4.272 8.619 2.493 16.932 6.089 24.706 10.686 2.01 1.189 4.46 1.373 6.624.5l24.792-10.005 20.561 20.676-10.592 26.541c-.813 2.04-.693 4.333.331 6.276 3.763 7.14 6.768 14.709 8.934 22.498.608 2.189 2.177 3.985 4.265 4.882l26.553 11.408z"/><path d="m178.592 315.775h5.435c8.471 0 15.361-6.891 15.361-15.361v-45.491c0-8.47-6.891-15.361-15.361-15.361-3.225-.069-6.673-.115-9.863.256 17.365-76.315 124.113-76.689 141.671 0-3.19-.371-6.637-.325-9.861-.256-8.471 0-15.361 6.891-15.361 15.361v45.491c0 8.47 6.891 15.361 15.361 15.361 3.319-.036 9.059-.05 11.363-.036 0 13.681-10.012 25.067-23.093 27.216-3.167-8.202-11.135-14.036-20.441-14.036h-14.401c-29.052 1.202-29.05 42.603 0 43.803h14.401c9.541 0 17.676-6.132 20.672-14.662 21.267-2.355 37.863-20.436 37.863-42.321v-6.239c22.987-14.841 22.717-49.467-.46-63.962-2.183-21.25-12.068-40.895-27.895-55.394-52.216-48.439-139.026-15.188-145.858 55.394-31.721 20.401-17.748 69.895 20.467 70.237zm95.211 41.947h-14.401c-9.136-.325-9.13-13.481 0-13.803h14.401c9.136.325 9.129 13.482 0 13.803zm37.605-56.947c.023-.003-5.796.344-5.796-.361v-45.491c0-.705 5.819-.359 5.796-.361 30.663 1.273 30.639 44.952 0 46.213zm-132.816-46.213c-.023.003 5.796-.344 5.796.361v45.491c0 .705-5.819.359-5.796.361-30.663-1.273-30.639-44.951 0-46.213z"/><path d="m118.911 366.505c-12.128-5.054-25.489-5.07-37.629-.046-12.197 5.048-21.695 14.572-26.744 26.817-15.829 38.304 20.139 78.384 59.784 66.281 3.962-1.209 6.193-5.401 4.983-9.363-1.209-3.962-5.403-6.19-9.362-4.984-7.543 2.303-15.716 1.896-23.012-1.145-17.462-7.278-25.772-27.497-18.526-45.072 3.518-8.531 10.128-15.163 18.613-18.675 26.673-11.234 54.332 14.809 45.682 42.216-1.239 3.952.96 8.161 4.913 9.4 3.949 1.24 8.16-.96 9.399-4.913 3.683-11.747 2.869-24.391-2.292-35.603-5.197-11.294-14.363-20.142-25.809-24.913z"/></g></svg>